<svg xmlns="http://www.w3.org/2000/svg" xmlns:xlink="http://www.w3.org/1999/xlink" fill="none" version="1.1" width="35.999977111816406" height="23.58822250366211" viewBox="0 0 35.999977111816406 23.58822250366211" class="hide default-logo-mobile" data-v-a801570c=""><g style="mix-blend-mode:passthrough;"><g><g style="mix-blend-mode:passthrough;"><path d="M0.27554,20.0484C0.27554,20.0484,9.90134,1.31344,9.90134,1.31344C10.785,-0.406398,13.2217,-0.445562,14.1597,1.24499C14.1597,1.24499,24.5153,19.9073,24.5153,19.9073C25.5632,21.7957,23.8108,24.012,21.7399,23.4175C21.7399,23.4175,13.2101,20.9691,13.2101,20.9691C12.776,20.8445,12.3159,20.8444,11.8819,20.9689C11.8819,20.9689,3.08678,23.4904,3.08678,23.4904C1.05174,24.0738,-0.6943,21.936,0.27554,20.0484C0.27554,20.0484,0.27554,20.0484,0.27554,20.0484Z" fill="#3970E3" fill-opacity="1"></path></g><g style="mix-blend-mode:passthrough;"><path d="M28.93594544921875,22.2763C28.93594544921875,22.2763,32.91183544921875,23.4175,32.91183544921875,23.4175C34.98273544921875,24.012,36.73503544921875,21.7957,35.68723544921875,19.9073C35.68723544921875,19.9073,25.33164544921875,1.24499,25.33164544921875,1.24499C24.393565449218748,-0.445562,21.95685544921875,-0.406398,21.07322544921875,1.31344C21.07322544921875,1.31344,19.36883544921875,4.63074,19.36883544921875,4.63074C19.36883544921875,4.63074,28.93594544921875,22.2763,28.93594544921875,22.2763C28.93594544921875,22.2763,28.93594544921875,22.2763,28.93594544921875,22.2763Z" fill="#3970E3" fill-opacity="0.5"></path></g></g></g></svg>